<svg xmlns="http://www.w3.org/2000/svg" viewBox="0 0 64 64">
  <defs>
    <linearGradient id="bg" x1="15%" y1="0%" x2="85%" y2="100%">
      <stop offset="0%" stop-color="#4737ff" />
      <stop offset="100%" stop-color="#25d7ff" />
    </linearGradient>
    <linearGradient id="orb" x1="0%" y1="0%" x2="100%" y2="100%">
      <stop offset="0%" stop-color="#ffffff" stop-opacity="0.95" />
      <stop offset="100%" stop-color="#d8f6ff" stop-opacity="0.9" />
    </linearGradient>
  </defs>
  <rect width="64" height="64" rx="16" fill="url(#bg)" />
  <g fill="none" stroke="#ffffff" stroke-width="5.5" stroke-linecap="round">
    <path d="M20 32c0-8 6.1-14 14-14s14 6 14 14-6.1 14-14 14-14-6-14-14z" />
  </g>
  <circle cx="46" cy="20" r="7.5" fill="url(#orb)" />
  <path
    d="M22 44h20c1.1 0 2 .9 2 2v.5c0 3-2.4 5.5-5.5 5.5h-13C22.4 52 20 49.5 20 46.5V46c0-1.1.9-2 2-2z"
    fill="rgba(255,255,255,0.18)"
  />
  <rect
    x="20"
    y="45.5"
    width="24"
    height="7"
    rx="3.5"
    fill="rgba(17, 25, 54, 0.74)"
  />
  <text
    x="32"
    y="51"
    text-anchor="middle"
    font-family="Poppins, 'Segoe UI', sans-serif"
    font-weight="600"
    font-size="7"
    fill="#ffffff"
  >
    officials
  </text>
</svg>
